<svg width="18" height="25" viewBox="0 0 18 25" fill="none" xmlns="http://www.w3.org/2000/svg">
<path d="M14.7705 10.5969C15.319 9.06875 16.8986 4.64844 16.8986 3.23281C16.8986 1.98594 16.1627 0.940625 14.8502 0.940625C12.7596 0.940625 10.8846 7.11406 10.2986 8.58594C9.84395 7.25 7.71583 0.5 5.84083 0.5C4.38301 0.5 3.69864 1.57344 3.69864 2.92344C3.69864 4.57812 5.30176 8.86719 5.88301 10.5172C5.5877 10.4094 5.26895 10.3156 4.94551 10.3156C3.84864 10.3156 2.68145 11.6797 2.68145 12.7812C2.68145 13.1984 2.91114 13.7844 3.05645 14.1734C1.32676 14.6422 0.661138 15.7953 0.661138 17.5344C0.65645 20.9187 3.8627 24.5 8.37208 24.5C13.9033 24.5 17.344 20.3469 17.344 14.9891C17.344 12.9688 17.0205 11.1453 14.7705 10.5969ZM13.1111 5.5625C13.2986 4.98594 14.1002 2.54844 14.8502 2.54844C15.2533 2.54844 15.3611 2.96563 15.3611 3.29844C15.3611 4.19375 13.5518 9.13906 13.1533 10.2359L11.5596 9.95469L13.1111 5.5625ZM5.17051 2.76406C5.17051 2.20625 5.8502 0.621875 7.34083 4.97188L8.9627 9.67344C8.23145 9.6125 7.66426 9.53281 7.30333 9.73906C6.79239 8.38906 5.17051 4.12812 5.17051 2.76406ZM5.0627 11.9375C6.43614 11.9375 8.20801 16.3719 8.20801 16.9719C8.20801 17.2109 7.97833 17.5062 7.71114 17.5062C6.73145 17.5062 4.10645 13.9016 4.10645 12.9266C4.11114 12.5656 4.70176 11.9375 5.0627 11.9375ZM13.7018 20.6703C12.3377 22.1703 10.594 22.9484 8.55958 22.9484C5.7752 22.9484 3.57676 21.4203 2.51739 18.8094C1.71583 16.775 2.69551 15.6078 3.48301 15.6078C4.01739 15.6078 6.02833 18.4344 6.02833 19.0344C6.02833 19.2641 5.66739 19.4234 5.47989 19.4234C4.7252 19.4234 4.42989 18.6969 3.08458 17.0141C1.69239 18.4062 4.04551 21.0875 5.81739 21.0875C7.04083 21.0875 7.8377 19.9531 7.59864 19.1188C7.77208 19.1188 7.9877 19.1328 8.14708 19.0906C8.19864 20.3609 8.57364 21.875 10.1018 21.9828C10.1018 21.9406 10.1955 21.65 10.1955 21.6359C10.1955 20.8203 9.69864 20.1078 9.69864 19.2781C9.69864 17.9516 10.7158 16.6672 11.7471 15.9172C12.1221 15.6359 12.5768 15.4625 13.0174 15.3031C13.4721 15.1297 13.9549 14.9281 14.3018 14.5812C14.2502 14.0562 14.0346 13.5922 13.5096 13.5922C12.2111 13.5922 7.85645 13.7797 7.85645 11.7313C7.85645 11.4172 7.86114 11.1172 8.67208 11.1172C10.1861 11.1172 14.0299 11.4922 15.1549 12.4813C16.0033 13.2359 16.294 17.7875 13.7018 20.6703ZM9.07989 14.7641C9.53458 14.9094 10.0033 14.9516 10.4721 15.0453C10.1252 15.2984 9.81583 15.6078 9.52051 15.9406C9.38926 15.5422 9.22989 15.1531 9.07989 14.7641Z" fill="white"/>
</svg>
