<svg width="101" height="35" viewBox="0 0 101 35" fill="none" xmlns="http://www.w3.org/2000/svg">
<path d="M23.7034 13.482H23.876C24.6265 13.482 25.3773 13.4984 26.1269 13.4773C26.7622 13.459 27.2555 13.6914 27.672 14.1655C28.2916 14.8707 28.936 15.5541 29.5713 16.2461C29.9176 16.6239 30.0577 17.0706 30.0139 17.5765C29.9248 18.6107 29.8294 19.6445 29.7419 20.679C29.6985 21.1906 29.4271 21.4494 28.9199 21.4497H28.7389C28.6923 21.1456 28.6794 20.8493 28.5991 20.5726C28.2774 19.4632 27.2092 18.8383 26.0806 18.9721C24.9574 19.1056 23.8231 20.05 23.6622 21.439H15.6936C15.6706 21.1994 15.6725 20.9557 15.6203 20.7246C15.3624 19.5828 14.305 18.838 13.1398 18.9617C12.5709 19.0227 12.034 19.2558 11.6009 19.6298C11.1678 20.0037 10.859 20.5009 10.7158 21.0549C10.6843 21.1761 10.6673 21.3008 10.6402 21.4399C10.5946 21.4424 10.5442 21.4481 10.4941 21.4484C10.0009 21.4484 9.50771 21.4484 9.0145 21.4484C8.59705 21.4484 8.34552 21.1459 8.38707 20.7272C8.45004 20.0853 8.49946 19.4421 8.55487 18.7996C8.57974 18.5131 8.60555 18.2266 8.63263 17.9247C8.69276 17.9218 8.74848 17.9174 8.80389 17.9174C9.48609 17.9174 10.1683 17.9174 10.8502 17.9174C11.0939 17.9174 11.2639 17.7953 11.3243 17.5831C11.3397 17.5342 11.3444 17.4826 11.3381 17.4317C11.3317 17.3809 11.3146 17.3319 11.2877 17.2883C11.2608 17.2446 11.2249 17.2073 11.1823 17.1787C11.1398 17.1502 11.0915 17.1311 11.041 17.1229C10.9735 17.1132 10.9054 17.1095 10.8373 17.1118C9.00065 17.1118 7.16423 17.1118 5.32802 17.1118C5.24931 17.1118 5.17061 17.114 5.09191 17.1118C4.86555 17.1011 4.72357 16.9692 4.71885 16.7684C4.71413 16.5675 4.87626 16.3736 5.07239 16.349C5.13519 16.3435 5.19828 16.3419 5.26128 16.3443H13.3205C13.5894 16.3443 13.7578 16.2398 13.8274 16.0295C13.9007 15.8091 13.7843 15.5966 13.5589 15.5463C13.4972 15.5351 13.4345 15.5306 13.3719 15.5327C11.1417 15.5327 8.91155 15.5327 6.68141 15.5327C6.50291 15.5327 6.34361 15.5091 6.26239 15.3259C6.16007 15.0954 6.32944 14.8046 6.58507 14.7706C6.64783 14.7643 6.71094 14.7623 6.77396 14.7646C8.46892 14.7646 10.1638 14.7646 11.8585 14.7646C12.0282 14.7646 12.1815 14.7359 12.2993 14.6002C12.4035 14.4784 12.4365 14.3374 12.3805 14.1891C12.3245 14.0408 12.1982 13.9649 12.0386 13.953C11.9867 13.9489 11.9338 13.9514 11.8812 13.9514H5.88146C5.59624 13.9514 5.43883 13.8255 5.4382 13.6026C5.4382 13.3677 5.62992 13.1864 5.89468 13.1851C6.50322 13.1817 7.11207 13.1836 7.72061 13.1836C9.46259 13.1836 11.2046 13.1836 12.9465 13.1836C13.0203 13.1854 13.094 13.1807 13.1669 13.1694C13.2739 13.152 13.3705 13.0949 13.4375 13.0096C13.5044 12.9243 13.5368 12.8169 13.5283 12.7088C13.5101 12.5077 13.347 12.3773 13.1058 12.3773C11.227 12.3773 9.34862 12.3773 7.47065 12.3773C7.18731 12.3773 7.02613 12.253 7.02235 12.031C7.01826 11.7993 7.21313 11.6073 7.47474 11.6045C7.98894 11.599 8.50313 11.599 9.01733 11.6045C9.14326 11.606 9.1845 11.573 9.19929 11.4426C9.23928 11.0926 9.53489 10.8354 9.89787 10.8111C9.94478 10.808 9.99231 10.8092 10.0395 10.8092H23.1506C23.6543 10.8092 23.8958 11.0709 23.8558 11.5695C23.8439 11.7213 23.8297 11.8727 23.8161 12.0241C23.7759 12.4785 23.7356 12.9329 23.6953 13.3873C23.6957 13.419 23.6984 13.4507 23.7034 13.482ZM28.8286 16.4665C28.7931 16.4186 28.7798 16.3969 28.7631 16.3786C28.1694 15.7285 27.5779 15.0759 26.9797 14.4312C26.7908 14.2272 26.539 14.1293 26.2613 14.1264C25.6588 14.1201 25.0559 14.1242 24.453 14.1264C24.4067 14.1264 24.3608 14.1318 24.3006 14.1356C24.2323 14.9163 24.165 15.6892 24.0973 16.468L28.8286 16.4665Z" fill="#964646"/>
<path d="M11.1612 21.6241C11.1675 20.2609 12.49 19.2117 13.8037 19.5271C14.7352 19.7509 15.3035 20.6604 15.1297 21.6521C14.9522 22.663 13.9872 23.4645 12.9628 23.4519C11.9384 23.4393 11.1564 22.6491 11.1612 21.6241ZM14.1613 21.3722C14.1611 21.2515 14.1369 21.1319 14.0901 21.0206C14.0434 20.9092 13.975 20.8082 13.8889 20.7235C13.8029 20.6388 13.7009 20.572 13.5888 20.5269C13.4767 20.4819 13.3569 20.4595 13.2361 20.4612C12.6537 20.4674 12.1525 20.9737 12.156 21.5526C12.1567 21.6721 12.181 21.7902 12.2274 21.9003C12.2739 22.0104 12.3417 22.1102 12.4268 22.194C12.512 22.2778 12.6128 22.3439 12.7236 22.3886C12.8344 22.4334 12.9529 22.4558 13.0724 22.4546C13.6507 22.4571 14.1623 21.949 14.1613 21.3722Z" fill="#964646"/>
<path d="M28.1801 21.3231C28.158 21.8786 27.9284 22.4055 27.5365 22.7999C27.1447 23.1942 26.6192 23.4272 26.0639 23.4528C25.8038 23.4651 25.5442 23.4207 25.3028 23.323C25.0615 23.2252 24.8442 23.0763 24.666 22.8864C24.4878 22.6966 24.3528 22.4704 24.2704 22.2234C24.1879 21.9764 24.16 21.7145 24.1886 21.4557C24.2421 20.9242 24.4861 20.4301 24.8755 20.0645C25.265 19.6989 25.7735 19.4865 26.3073 19.4667C27.3468 19.4242 28.216 20.2855 28.1801 21.3231ZM27.1781 21.3798C27.1799 21.2589 27.1575 21.1389 27.1122 21.0268C27.0668 20.9147 26.9994 20.8129 26.914 20.7273C26.8286 20.6417 26.7269 20.5742 26.6149 20.5286C26.5029 20.4831 26.3829 20.4604 26.262 20.4621C25.6877 20.4621 25.1818 20.9623 25.1796 21.5325C25.1777 22.0557 25.5668 22.4527 26.0853 22.4568C26.6646 22.4609 27.1762 21.9568 27.1781 21.3798Z" fill="#964646"/>
<path d="M28.8283 16.4665H24.0967C24.1644 15.6876 24.2317 14.9147 24.3001 14.134C24.3602 14.1302 24.4061 14.1249 24.4524 14.1249C25.0553 14.1249 25.6582 14.1201 26.2607 14.1249C26.5381 14.1277 26.7899 14.2256 26.9791 14.4296C27.5773 15.0744 28.1691 15.727 28.7629 16.3771C28.7796 16.3981 28.7928 16.4186 28.8283 16.4665Z" fill="white"/>
<path d="M14.1607 21.3722C14.1607 21.9477 13.65 22.4558 13.0717 22.4545C12.9523 22.4558 12.8337 22.4334 12.7229 22.3886C12.6122 22.3439 12.5113 22.2777 12.4261 22.1939C12.341 22.1101 12.2732 22.0103 12.2268 21.9003C12.1803 21.7902 12.156 21.6721 12.1553 21.5526C12.1518 20.9737 12.653 20.4674 13.2354 20.4611C13.3562 20.4595 13.4761 20.4819 13.5881 20.5269C13.7002 20.5719 13.8022 20.6388 13.8883 20.7235C13.9743 20.8082 14.0427 20.9092 14.0895 21.0206C14.1362 21.1319 14.1604 21.2514 14.1607 21.3722Z" fill="white"/>
<path d="M42.16 12.53V14.225H39.37V23H37.27V14.225H34.48V12.53H42.16ZM45.7922 15.98C46.0622 15.54 46.4122 15.195 46.8422 14.945C47.2822 14.695 47.7822 14.57 48.3422 14.57V16.775H47.7872C47.1272 16.775 46.6272 16.93 46.2872 17.24C45.9572 17.55 45.7922 18.09 45.7922 18.86V23H43.6922V14.69H45.7922V15.98ZM49.2167 18.815C49.2167 17.975 49.3817 17.23 49.7117 16.58C50.0517 15.93 50.5067 15.43 51.0767 15.08C51.6567 14.73 52.3017 14.555 53.0117 14.555C53.6317 14.555 54.1717 14.68 54.6317 14.93C55.1017 15.18 55.4767 15.495 55.7567 15.875V14.69H57.8717V23H55.7567V21.785C55.4867 22.175 55.1117 22.5 54.6317 22.76C54.1617 23.01 53.6167 23.135 52.9967 23.135C52.2967 23.135 51.6567 22.955 51.0767 22.595C50.5067 22.235 50.0517 21.73 49.7117 21.08C49.3817 20.42 49.2167 19.665 49.2167 18.815ZM55.7567 18.845C55.7567 18.335 55.6567 17.9 55.4567 17.54C55.2567 17.17 54.9867 16.89 54.6467 16.7C54.3067 16.5 53.9417 16.4 53.5517 16.4C53.1617 16.4 52.8017 16.495 52.4717 16.685C52.1417 16.875 51.8717 17.155 51.6617 17.525C51.4617 17.885 51.3617 18.315 51.3617 18.815C51.3617 19.315 51.4617 19.755 51.6617 20.135C51.8717 20.505 52.1417 20.79 52.4717 20.99C52.8117 21.19 53.1717 21.29 53.5517 21.29C53.9417 21.29 54.3067 21.195 54.6467 21.005C54.9867 20.805 55.2567 20.525 55.4567 20.165C55.6567 19.795 55.7567 19.355 55.7567 18.845ZM59.3827 18.845C59.3827 17.985 59.5577 17.235 59.9077 16.595C60.2577 15.945 60.7427 15.445 61.3627 15.095C61.9827 14.735 62.6927 14.555 63.4927 14.555C64.5227 14.555 65.3727 14.815 66.0427 15.335C66.7227 15.845 67.1777 16.565 67.4077 17.495H65.1427C65.0227 17.135 64.8177 16.855 64.5277 16.655C64.2477 16.445 63.8977 16.34 63.4777 16.34C62.8777 16.34 62.4027 16.56 62.0527 17C61.7027 17.43 61.5277 18.045 61.5277 18.845C61.5277 19.635 61.7027 20.25 62.0527 20.69C62.4027 21.12 62.8777 21.335 63.4777 21.335C64.3277 21.335 64.8827 20.955 65.1427 20.195H67.4077C67.1777 21.095 66.7227 21.81 66.0427 22.34C65.3627 22.87 64.5127 23.135 63.4927 23.135C62.6927 23.135 61.9827 22.96 61.3627 22.61C60.7427 22.25 60.2577 21.75 59.9077 21.11C59.5577 20.46 59.3827 19.705 59.3827 18.845ZM73.8661 23L71.0461 19.46V23H68.9461V11.9H71.0461V18.215L73.8361 14.69H76.5661L72.9061 18.86L76.5961 23H73.8661ZM78.7709 13.7C78.4009 13.7 78.0909 13.585 77.8409 13.355C77.6009 13.115 77.4809 12.82 77.4809 12.47C77.4809 12.12 77.6009 11.83 77.8409 11.6C78.0909 11.36 78.4009 11.24 78.7709 11.24C79.1409 11.24 79.4459 11.36 79.6859 11.6C79.9359 11.83 80.0609 12.12 80.0609 12.47C80.0609 12.82 79.9359 13.115 79.6859 13.355C79.4459 13.585 79.1409 13.7 78.7709 13.7ZM79.8059 14.69V23H77.7059V14.69H79.8059ZM86.4857 14.57C87.4757 14.57 88.2757 14.885 88.8857 15.515C89.4957 16.135 89.8007 17.005 89.8007 18.125V23H87.7007V18.41C87.7007 17.75 87.5357 17.245 87.2057 16.895C86.8757 16.535 86.4257 16.355 85.8557 16.355C85.2757 16.355 84.8157 16.535 84.4757 16.895C84.1457 17.245 83.9807 17.75 83.9807 18.41V23H81.8807V14.69H83.9807V15.725C84.2607 15.365 84.6157 15.085 85.0457 14.885C85.4857 14.675 85.9657 14.57 86.4857 14.57ZM95.0527 14.555C95.6727 14.555 96.2177 14.68 96.6877 14.93C97.1577 15.17 97.5277 15.485 97.7977 15.875V14.69H99.9127V23.06C99.9127 23.83 99.7577 24.515 99.4477 25.115C99.1377 25.725 98.6727 26.205 98.0527 26.555C97.4327 26.915 96.6827 27.095 95.8027 27.095C94.6227 27.095 93.6527 26.82 92.8927 26.27C92.1427 25.72 91.7177 24.97 91.6177 24.02H93.7027C93.8127 24.4 94.0477 24.7 94.4077 24.92C94.7777 25.15 95.2227 25.265 95.7427 25.265C96.3527 25.265 96.8477 25.08 97.2277 24.71C97.6077 24.35 97.7977 23.8 97.7977 23.06V21.77C97.5277 22.16 97.1527 22.485 96.6727 22.745C96.2027 23.005 95.6627 23.135 95.0527 23.135C94.3527 23.135 93.7127 22.955 93.1327 22.595C92.5527 22.235 92.0927 21.73 91.7527 21.08C91.4227 20.42 91.2577 19.665 91.2577 18.815C91.2577 17.975 91.4227 17.23 91.7527 16.58C92.0927 15.93 92.5477 15.43 93.1177 15.08C93.6977 14.73 94.3427 14.555 95.0527 14.555ZM97.7977 18.845C97.7977 18.335 97.6977 17.9 97.4977 17.54C97.2977 17.17 97.0277 16.89 96.6877 16.7C96.3477 16.5 95.9827 16.4 95.5927 16.4C95.2027 16.4 94.8427 16.495 94.5127 16.685C94.1827 16.875 93.9127 17.155 93.7027 17.525C93.5027 17.885 93.4027 18.315 93.4027 18.815C93.4027 19.315 93.5027 19.755 93.7027 20.135C93.9127 20.505 94.1827 20.79 94.5127 20.99C94.8527 21.19 95.2127 21.29 95.5927 21.29C95.9827 21.29 96.3477 21.195 96.6877 21.005C97.0277 20.805 97.2977 20.525 97.4977 20.165C97.6977 19.795 97.7977 19.355 97.7977 18.845Z" fill="#9A4E4E"/>
</svg>
